<mxfile host="Electron" agent="Mozilla/5.0 (Windows NT 10.0; Win64; x64) AppleWebKit/537.36 (KHTML, like Gecko) draw.io/24.7.8 Chrome/128.0.6613.36 Electron/32.0.1 Safari/537.36" version="24.7.8" pages="2">
  <diagram name="Page-1" id="1CPvDkaHsY06N4T7wl7q">
    <mxGraphModel dx="1434" dy="836" grid="0" gridSize="10" guides="1" tooltips="1" connect="1" arrows="1" fold="1" page="1" pageScale="1" pageWidth="827" pageHeight="1169" math="0" shadow="0">
      <root>
        <mxCell id="0" />
        <mxCell id="1" parent="0" />
        <mxCell id="mezI6ZfzWDAZcWfunjce-1" value="Créer un itinéraire" style="strokeWidth=1;shadow=0;dashed=0;align=center;html=1;shape=mxgraph.mockup.containers.window;align=left;verticalAlign=top;spacingLeft=8;strokeColor2=#008cff;strokeColor3=#c4c4c4;fontColor=#666666;mainText=;fontSize=17;labelBackgroundColor=none;whiteSpace=wrap;" vertex="1" parent="1">
          <mxGeometry x="124" y="109" width="550" height="770" as="geometry" />
        </mxCell>
        <mxCell id="mezI6ZfzWDAZcWfunjce-2" value="&lt;font style=&quot;font-size: 12px;&quot;&gt;Sélectionner un pays&lt;/font&gt;" style="strokeWidth=1;shadow=0;dashed=0;align=center;html=1;shape=mxgraph.mockup.forms.comboBox;strokeColor=#999999;fillColor=#ddeeff;align=left;fillColor2=#aaddff;mainText=;fontColor=#666666;fontSize=17;spacingLeft=3;" vertex="1" parent="1">
          <mxGeometry x="376" y="222" width="150" height="30" as="geometry" />
        </mxCell>
        <mxCell id="mezI6ZfzWDAZcWfunjce-3" value="Ville de départ" style="text;html=1;align=right;verticalAlign=middle;whiteSpace=wrap;rounded=0;fontSize=16;" vertex="1" parent="1">
          <mxGeometry x="170" y="261" width="134" height="30" as="geometry" />
        </mxCell>
        <mxCell id="mezI6ZfzWDAZcWfunjce-4" value="Pays de départ" style="text;html=1;align=right;verticalAlign=middle;whiteSpace=wrap;rounded=0;fontSize=16;" vertex="1" parent="1">
          <mxGeometry x="170" y="222" width="134" height="30" as="geometry" />
        </mxCell>
        <mxCell id="mezI6ZfzWDAZcWfunjce-5" value="" style="strokeWidth=1;shadow=0;dashed=0;align=center;html=1;shape=mxgraph.mockup.forms.pwField;strokeColor=#999999;mainText=;align=left;fontColor=#666666;fontSize=17;spacingLeft=3;" vertex="1" parent="1">
          <mxGeometry x="376" y="261" width="150" height="30" as="geometry" />
        </mxCell>
        <mxCell id="mezI6ZfzWDAZcWfunjce-10" value="Date du déplacement" style="text;html=1;align=right;verticalAlign=middle;whiteSpace=wrap;rounded=0;fontSize=16;" vertex="1" parent="1">
          <mxGeometry x="139" y="377" width="165" height="30" as="geometry" />
        </mxCell>
        <mxCell id="mezI6ZfzWDAZcWfunjce-11" value="&lt;font color=&quot;#b3b3b3&quot;&gt;aaaa-mm-jj&lt;/font&gt;" style="strokeWidth=1;shadow=0;dashed=0;align=center;html=1;shape=mxgraph.mockup.forms.pwField;strokeColor=#999999;mainText=;align=left;fontColor=#666666;fontSize=17;spacingLeft=3;" vertex="1" parent="1">
          <mxGeometry x="376" y="377" width="150" height="30" as="geometry" />
        </mxCell>
        <mxCell id="mezI6ZfzWDAZcWfunjce-12" value="" style="strokeWidth=1;shadow=0;dashed=0;align=center;html=1;shape=mxgraph.mockup.forms.rrect;rSize=5;strokeColor=#999999;fillColor=#ffffff;" vertex="1" parent="1">
          <mxGeometry x="598" y="379" width="160" height="175" as="geometry" />
        </mxCell>
        <mxCell id="mezI6ZfzWDAZcWfunjce-13" value="October 2014" style="strokeWidth=1;shadow=0;dashed=0;align=center;html=1;shape=mxgraph.mockup.forms.anchor;fontColor=#999999;" vertex="1" parent="mezI6ZfzWDAZcWfunjce-12">
          <mxGeometry x="30" y="8" width="100" height="20" as="geometry" />
        </mxCell>
        <mxCell id="mezI6ZfzWDAZcWfunjce-14" value="&lt;" style="strokeWidth=1;shadow=0;dashed=0;align=center;html=1;shape=mxgraph.mockup.forms.rrect;rSize=4;strokeColor=#999999;fontColor=#008cff;fontSize=19;fontStyle=1;" vertex="1" parent="mezI6ZfzWDAZcWfunjce-12">
          <mxGeometry x="8" y="8" width="25" height="20" as="geometry" />
        </mxCell>
        <mxCell id="mezI6ZfzWDAZcWfunjce-15" value="&gt;" style="strokeWidth=1;shadow=0;dashed=0;align=center;html=1;shape=mxgraph.mockup.forms.rrect;rSize=4;strokeColor=#999999;fontColor=#008cff;fontSize=19;fontStyle=1;" vertex="1" parent="mezI6ZfzWDAZcWfunjce-12">
          <mxGeometry x="127" y="8" width="25" height="20" as="geometry" />
        </mxCell>
        <mxCell id="mezI6ZfzWDAZcWfunjce-16" value="Mo" style="strokeWidth=1;shadow=0;dashed=0;align=center;html=1;shape=mxgraph.mockup.forms.anchor;fontColor=#999999;" vertex="1" parent="mezI6ZfzWDAZcWfunjce-12">
          <mxGeometry x="10" y="28" width="20" height="20" as="geometry" />
        </mxCell>
        <mxCell id="mezI6ZfzWDAZcWfunjce-17" value="Tu" style="strokeWidth=1;shadow=0;dashed=0;align=center;html=1;shape=mxgraph.mockup.forms.anchor;fontColor=#999999;" vertex="1" parent="mezI6ZfzWDAZcWfunjce-12">
          <mxGeometry x="30" y="28" width="20" height="20" as="geometry" />
        </mxCell>
        <mxCell id="mezI6ZfzWDAZcWfunjce-18" value="We" style="strokeWidth=1;shadow=0;dashed=0;align=center;html=1;shape=mxgraph.mockup.forms.anchor;fontColor=#999999;" vertex="1" parent="mezI6ZfzWDAZcWfunjce-12">
          <mxGeometry x="50" y="28" width="20" height="20" as="geometry" />
        </mxCell>
        <mxCell id="mezI6ZfzWDAZcWfunjce-19" value="Th" style="strokeWidth=1;shadow=0;dashed=0;align=center;html=1;shape=mxgraph.mockup.forms.anchor;fontColor=#999999;" vertex="1" parent="mezI6ZfzWDAZcWfunjce-12">
          <mxGeometry x="70" y="28" width="20" height="20" as="geometry" />
        </mxCell>
        <mxCell id="mezI6ZfzWDAZcWfunjce-20" value="Fr" style="strokeWidth=1;shadow=0;dashed=0;align=center;html=1;shape=mxgraph.mockup.forms.anchor;fontColor=#999999;" vertex="1" parent="mezI6ZfzWDAZcWfunjce-12">
          <mxGeometry x="90" y="28" width="20" height="20" as="geometry" />
        </mxCell>
        <mxCell id="mezI6ZfzWDAZcWfunjce-21" value="Sa" style="strokeWidth=1;shadow=0;dashed=0;align=center;html=1;shape=mxgraph.mockup.forms.anchor;fontColor=#999999;" vertex="1" parent="mezI6ZfzWDAZcWfunjce-12">
          <mxGeometry x="110" y="28" width="20" height="20" as="geometry" />
        </mxCell>
        <mxCell id="mezI6ZfzWDAZcWfunjce-22" value="Su" style="strokeWidth=1;shadow=0;dashed=0;align=center;html=1;shape=mxgraph.mockup.forms.anchor;fontColor=#999999;" vertex="1" parent="mezI6ZfzWDAZcWfunjce-12">
          <mxGeometry x="130" y="28" width="20" height="20" as="geometry" />
        </mxCell>
        <mxCell id="mezI6ZfzWDAZcWfunjce-23" value="1" style="strokeWidth=1;shadow=0;dashed=0;align=center;html=1;shape=mxgraph.mockup.forms.rrect;rSize=0;strokeColor=#999999;fontColor=#999999;" vertex="1" parent="mezI6ZfzWDAZcWfunjce-12">
          <mxGeometry x="10" y="48" width="20" height="20" as="geometry" />
        </mxCell>
        <mxCell id="mezI6ZfzWDAZcWfunjce-24" value="2" style="strokeWidth=1;shadow=0;dashed=0;align=center;html=1;shape=mxgraph.mockup.forms.rrect;rSize=0;strokeColor=#999999;fontColor=#999999;" vertex="1" parent="mezI6ZfzWDAZcWfunjce-12">
          <mxGeometry x="30" y="48" width="20" height="20" as="geometry" />
        </mxCell>
        <mxCell id="mezI6ZfzWDAZcWfunjce-25" value="3" style="strokeWidth=1;shadow=0;dashed=0;align=center;html=1;shape=mxgraph.mockup.forms.rrect;rSize=0;strokeColor=#999999;fontColor=#999999;" vertex="1" parent="mezI6ZfzWDAZcWfunjce-12">
          <mxGeometry x="50" y="48" width="20" height="20" as="geometry" />
        </mxCell>
        <mxCell id="mezI6ZfzWDAZcWfunjce-26" value="4" style="strokeWidth=1;shadow=0;dashed=0;align=center;html=1;shape=mxgraph.mockup.forms.rrect;rSize=0;strokeColor=#999999;fontColor=#999999;" vertex="1" parent="mezI6ZfzWDAZcWfunjce-12">
          <mxGeometry x="70" y="48" width="20" height="20" as="geometry" />
        </mxCell>
        <mxCell id="mezI6ZfzWDAZcWfunjce-27" value="5" style="strokeWidth=1;shadow=0;dashed=0;align=center;html=1;shape=mxgraph.mockup.forms.rrect;rSize=0;strokeColor=#999999;fontColor=#999999;" vertex="1" parent="mezI6ZfzWDAZcWfunjce-12">
          <mxGeometry x="90" y="48" width="20" height="20" as="geometry" />
        </mxCell>
        <mxCell id="mezI6ZfzWDAZcWfunjce-28" value="6" style="strokeWidth=1;shadow=0;dashed=0;align=center;html=1;shape=mxgraph.mockup.forms.rrect;rSize=0;strokeColor=#999999;fontColor=#999999;" vertex="1" parent="mezI6ZfzWDAZcWfunjce-12">
          <mxGeometry x="110" y="48" width="20" height="20" as="geometry" />
        </mxCell>
        <mxCell id="mezI6ZfzWDAZcWfunjce-29" value="7" style="strokeWidth=1;shadow=0;dashed=0;align=center;html=1;shape=mxgraph.mockup.forms.rrect;rSize=0;strokeColor=#999999;fontColor=#999999;" vertex="1" parent="mezI6ZfzWDAZcWfunjce-12">
          <mxGeometry x="130" y="48" width="20" height="20" as="geometry" />
        </mxCell>
        <mxCell id="mezI6ZfzWDAZcWfunjce-30" value="8" style="strokeWidth=1;shadow=0;dashed=0;align=center;html=1;shape=mxgraph.mockup.forms.rrect;rSize=0;strokeColor=#999999;fontColor=#999999;" vertex="1" parent="mezI6ZfzWDAZcWfunjce-12">
          <mxGeometry x="10" y="68" width="20" height="20" as="geometry" />
        </mxCell>
        <mxCell id="mezI6ZfzWDAZcWfunjce-31" value="9" style="strokeWidth=1;shadow=0;dashed=0;align=center;html=1;shape=mxgraph.mockup.forms.rrect;rSize=0;strokeColor=#999999;fontColor=#999999;" vertex="1" parent="mezI6ZfzWDAZcWfunjce-12">
          <mxGeometry x="30" y="68" width="20" height="20" as="geometry" />
        </mxCell>
        <mxCell id="mezI6ZfzWDAZcWfunjce-32" value="10" style="strokeWidth=1;shadow=0;dashed=0;align=center;html=1;shape=mxgraph.mockup.forms.rrect;rSize=0;strokeColor=#999999;fontColor=#999999;" vertex="1" parent="mezI6ZfzWDAZcWfunjce-12">
          <mxGeometry x="50" y="68" width="20" height="20" as="geometry" />
        </mxCell>
        <mxCell id="mezI6ZfzWDAZcWfunjce-33" value="11" style="strokeWidth=1;shadow=0;dashed=0;align=center;html=1;shape=mxgraph.mockup.forms.rrect;rSize=0;strokeColor=#999999;fontColor=#999999;" vertex="1" parent="mezI6ZfzWDAZcWfunjce-12">
          <mxGeometry x="70" y="68" width="20" height="20" as="geometry" />
        </mxCell>
        <mxCell id="mezI6ZfzWDAZcWfunjce-34" value="12" style="strokeWidth=1;shadow=0;dashed=0;align=center;html=1;shape=mxgraph.mockup.forms.rrect;rSize=0;strokeColor=#999999;fontColor=#999999;" vertex="1" parent="mezI6ZfzWDAZcWfunjce-12">
          <mxGeometry x="90" y="68" width="20" height="20" as="geometry" />
        </mxCell>
        <mxCell id="mezI6ZfzWDAZcWfunjce-35" value="13" style="strokeWidth=1;shadow=0;dashed=0;align=center;html=1;shape=mxgraph.mockup.forms.rrect;rSize=0;strokeColor=#999999;fontColor=#999999;" vertex="1" parent="mezI6ZfzWDAZcWfunjce-12">
          <mxGeometry x="110" y="68" width="20" height="20" as="geometry" />
        </mxCell>
        <mxCell id="mezI6ZfzWDAZcWfunjce-36" value="14" style="strokeWidth=1;shadow=0;dashed=0;align=center;html=1;shape=mxgraph.mockup.forms.rrect;rSize=0;strokeColor=#999999;fontColor=#999999;" vertex="1" parent="mezI6ZfzWDAZcWfunjce-12">
          <mxGeometry x="130" y="68" width="20" height="20" as="geometry" />
        </mxCell>
        <mxCell id="mezI6ZfzWDAZcWfunjce-37" value="15" style="strokeWidth=1;shadow=0;dashed=0;align=center;html=1;shape=mxgraph.mockup.forms.rrect;rSize=0;strokeColor=#999999;fontColor=#999999;" vertex="1" parent="mezI6ZfzWDAZcWfunjce-12">
          <mxGeometry x="10" y="88" width="20" height="20" as="geometry" />
        </mxCell>
        <mxCell id="mezI6ZfzWDAZcWfunjce-38" value="16" style="strokeWidth=1;shadow=0;dashed=0;align=center;html=1;shape=mxgraph.mockup.forms.rrect;rSize=0;strokeColor=#999999;fontColor=#999999;" vertex="1" parent="mezI6ZfzWDAZcWfunjce-12">
          <mxGeometry x="30" y="88" width="20" height="20" as="geometry" />
        </mxCell>
        <mxCell id="mezI6ZfzWDAZcWfunjce-39" value="17" style="strokeWidth=1;shadow=0;dashed=0;align=center;html=1;shape=mxgraph.mockup.forms.rrect;rSize=0;strokeColor=#999999;fontColor=#999999;" vertex="1" parent="mezI6ZfzWDAZcWfunjce-12">
          <mxGeometry x="50" y="88" width="20" height="20" as="geometry" />
        </mxCell>
        <mxCell id="mezI6ZfzWDAZcWfunjce-40" value="18" style="strokeWidth=1;shadow=0;dashed=0;align=center;html=1;shape=mxgraph.mockup.forms.rrect;rSize=0;strokeColor=#999999;fontColor=#999999;" vertex="1" parent="mezI6ZfzWDAZcWfunjce-12">
          <mxGeometry x="70" y="88" width="20" height="20" as="geometry" />
        </mxCell>
        <mxCell id="mezI6ZfzWDAZcWfunjce-41" value="19" style="strokeWidth=1;shadow=0;dashed=0;align=center;html=1;shape=mxgraph.mockup.forms.rrect;rSize=0;strokeColor=#999999;fontColor=#999999;" vertex="1" parent="mezI6ZfzWDAZcWfunjce-12">
          <mxGeometry x="90" y="88" width="20" height="20" as="geometry" />
        </mxCell>
        <mxCell id="mezI6ZfzWDAZcWfunjce-42" value="20" style="strokeWidth=1;shadow=0;dashed=0;align=center;html=1;shape=mxgraph.mockup.forms.rrect;rSize=0;strokeColor=#999999;fontColor=#999999;" vertex="1" parent="mezI6ZfzWDAZcWfunjce-12">
          <mxGeometry x="110" y="88" width="20" height="20" as="geometry" />
        </mxCell>
        <mxCell id="mezI6ZfzWDAZcWfunjce-43" value="21" style="strokeWidth=1;shadow=0;dashed=0;align=center;html=1;shape=mxgraph.mockup.forms.rrect;rSize=0;strokeColor=#999999;fontColor=#999999;" vertex="1" parent="mezI6ZfzWDAZcWfunjce-12">
          <mxGeometry x="130" y="88" width="20" height="20" as="geometry" />
        </mxCell>
        <mxCell id="mezI6ZfzWDAZcWfunjce-44" value="22" style="strokeWidth=1;shadow=0;dashed=0;align=center;html=1;shape=mxgraph.mockup.forms.rrect;rSize=0;strokeColor=#999999;fontColor=#999999;" vertex="1" parent="mezI6ZfzWDAZcWfunjce-12">
          <mxGeometry x="10" y="108" width="20" height="20" as="geometry" />
        </mxCell>
        <mxCell id="mezI6ZfzWDAZcWfunjce-45" value="23" style="strokeWidth=1;shadow=0;dashed=0;align=center;html=1;shape=mxgraph.mockup.forms.rrect;rSize=0;strokeColor=#999999;fontColor=#999999;" vertex="1" parent="mezI6ZfzWDAZcWfunjce-12">
          <mxGeometry x="30" y="108" width="20" height="20" as="geometry" />
        </mxCell>
        <mxCell id="mezI6ZfzWDAZcWfunjce-46" value="25" style="strokeWidth=1;shadow=0;dashed=0;align=center;html=1;shape=mxgraph.mockup.forms.rrect;rSize=0;strokeColor=#999999;fontColor=#999999;" vertex="1" parent="mezI6ZfzWDAZcWfunjce-12">
          <mxGeometry x="70" y="108" width="20" height="20" as="geometry" />
        </mxCell>
        <mxCell id="mezI6ZfzWDAZcWfunjce-47" value="26" style="strokeWidth=1;shadow=0;dashed=0;align=center;html=1;shape=mxgraph.mockup.forms.rrect;rSize=0;strokeColor=#999999;fontColor=#999999;" vertex="1" parent="mezI6ZfzWDAZcWfunjce-12">
          <mxGeometry x="90" y="108" width="20" height="20" as="geometry" />
        </mxCell>
        <mxCell id="mezI6ZfzWDAZcWfunjce-48" value="27" style="strokeWidth=1;shadow=0;dashed=0;align=center;html=1;shape=mxgraph.mockup.forms.rrect;rSize=0;strokeColor=#999999;fontColor=#999999;" vertex="1" parent="mezI6ZfzWDAZcWfunjce-12">
          <mxGeometry x="110" y="108" width="20" height="20" as="geometry" />
        </mxCell>
        <mxCell id="mezI6ZfzWDAZcWfunjce-49" value="28" style="strokeWidth=1;shadow=0;dashed=0;align=center;html=1;shape=mxgraph.mockup.forms.rrect;rSize=0;strokeColor=#999999;fontColor=#999999;" vertex="1" parent="mezI6ZfzWDAZcWfunjce-12">
          <mxGeometry x="130" y="108" width="20" height="20" as="geometry" />
        </mxCell>
        <mxCell id="mezI6ZfzWDAZcWfunjce-50" value="29" style="strokeWidth=1;shadow=0;dashed=0;align=center;html=1;shape=mxgraph.mockup.forms.rrect;rSize=0;strokeColor=#999999;fontColor=#999999;" vertex="1" parent="mezI6ZfzWDAZcWfunjce-12">
          <mxGeometry x="10" y="128" width="20" height="20" as="geometry" />
        </mxCell>
        <mxCell id="mezI6ZfzWDAZcWfunjce-51" value="30" style="strokeWidth=1;shadow=0;dashed=0;align=center;html=1;shape=mxgraph.mockup.forms.rrect;rSize=0;strokeColor=#999999;fontColor=#999999;" vertex="1" parent="mezI6ZfzWDAZcWfunjce-12">
          <mxGeometry x="30" y="128" width="20" height="20" as="geometry" />
        </mxCell>
        <mxCell id="mezI6ZfzWDAZcWfunjce-52" value="31" style="strokeWidth=1;shadow=0;dashed=0;align=center;html=1;shape=mxgraph.mockup.forms.rrect;rSize=0;strokeColor=#999999;fontColor=#999999;" vertex="1" parent="mezI6ZfzWDAZcWfunjce-12">
          <mxGeometry x="50" y="128" width="20" height="20" as="geometry" />
        </mxCell>
        <mxCell id="mezI6ZfzWDAZcWfunjce-53" value="1" style="strokeWidth=1;shadow=0;dashed=0;align=center;html=1;shape=mxgraph.mockup.forms.rrect;rSize=0;strokeColor=#999999;fontColor=#999999;fillColor=#ddeeff;" vertex="1" parent="mezI6ZfzWDAZcWfunjce-12">
          <mxGeometry x="70" y="128" width="20" height="20" as="geometry" />
        </mxCell>
        <mxCell id="mezI6ZfzWDAZcWfunjce-54" value="2" style="strokeWidth=1;shadow=0;dashed=0;align=center;html=1;shape=mxgraph.mockup.forms.rrect;rSize=0;strokeColor=#999999;fontColor=#999999;fillColor=#ddeeff;" vertex="1" parent="mezI6ZfzWDAZcWfunjce-12">
          <mxGeometry x="90" y="128" width="20" height="20" as="geometry" />
        </mxCell>
        <mxCell id="mezI6ZfzWDAZcWfunjce-55" value="3" style="strokeWidth=1;shadow=0;dashed=0;align=center;html=1;shape=mxgraph.mockup.forms.rrect;rSize=0;strokeColor=#999999;fontColor=#999999;fillColor=#ddeeff;" vertex="1" parent="mezI6ZfzWDAZcWfunjce-12">
          <mxGeometry x="110" y="128" width="20" height="20" as="geometry" />
        </mxCell>
        <mxCell id="mezI6ZfzWDAZcWfunjce-56" value="4" style="strokeWidth=1;shadow=0;dashed=0;align=center;html=1;shape=mxgraph.mockup.forms.rrect;rSize=0;strokeColor=#999999;fontColor=#999999;fillColor=#ddeeff;" vertex="1" parent="mezI6ZfzWDAZcWfunjce-12">
          <mxGeometry x="130" y="128" width="20" height="20" as="geometry" />
        </mxCell>
        <mxCell id="mezI6ZfzWDAZcWfunjce-57" value="5" style="strokeWidth=1;shadow=0;dashed=0;align=center;html=1;shape=mxgraph.mockup.forms.rrect;rSize=0;strokeColor=#999999;fontColor=#999999;fillColor=#ddeeff;" vertex="1" parent="mezI6ZfzWDAZcWfunjce-12">
          <mxGeometry x="10" y="148" width="20" height="20" as="geometry" />
        </mxCell>
        <mxCell id="mezI6ZfzWDAZcWfunjce-58" value="6" style="strokeWidth=1;shadow=0;dashed=0;align=center;html=1;shape=mxgraph.mockup.forms.rrect;rSize=0;strokeColor=#999999;fontColor=#999999;fillColor=#ddeeff;" vertex="1" parent="mezI6ZfzWDAZcWfunjce-12">
          <mxGeometry x="30" y="148" width="20" height="20" as="geometry" />
        </mxCell>
        <mxCell id="mezI6ZfzWDAZcWfunjce-59" value="7" style="strokeWidth=1;shadow=0;dashed=0;align=center;html=1;shape=mxgraph.mockup.forms.rrect;rSize=0;strokeColor=#999999;fontColor=#999999;fillColor=#ddeeff;" vertex="1" parent="mezI6ZfzWDAZcWfunjce-12">
          <mxGeometry x="50" y="148" width="20" height="20" as="geometry" />
        </mxCell>
        <mxCell id="mezI6ZfzWDAZcWfunjce-60" value="8" style="strokeWidth=1;shadow=0;dashed=0;align=center;html=1;shape=mxgraph.mockup.forms.rrect;rSize=0;strokeColor=#999999;fontColor=#999999;fillColor=#ddeeff;" vertex="1" parent="mezI6ZfzWDAZcWfunjce-12">
          <mxGeometry x="70" y="148" width="20" height="20" as="geometry" />
        </mxCell>
        <mxCell id="mezI6ZfzWDAZcWfunjce-61" value="9" style="strokeWidth=1;shadow=0;dashed=0;align=center;html=1;shape=mxgraph.mockup.forms.rrect;rSize=0;strokeColor=#999999;fontColor=#999999;fillColor=#ddeeff;" vertex="1" parent="mezI6ZfzWDAZcWfunjce-12">
          <mxGeometry x="90" y="148" width="20" height="20" as="geometry" />
        </mxCell>
        <mxCell id="mezI6ZfzWDAZcWfunjce-62" value="10" style="strokeWidth=1;shadow=0;dashed=0;align=center;html=1;shape=mxgraph.mockup.forms.rrect;rSize=0;strokeColor=#999999;fontColor=#999999;fillColor=#ddeeff;" vertex="1" parent="mezI6ZfzWDAZcWfunjce-12">
          <mxGeometry x="110" y="148" width="20" height="20" as="geometry" />
        </mxCell>
        <mxCell id="mezI6ZfzWDAZcWfunjce-63" value="11" style="strokeWidth=1;shadow=0;dashed=0;align=center;html=1;shape=mxgraph.mockup.forms.rrect;rSize=0;strokeColor=#999999;fontColor=#999999;fillColor=#ddeeff;" vertex="1" parent="mezI6ZfzWDAZcWfunjce-12">
          <mxGeometry x="130" y="148" width="20" height="20" as="geometry" />
        </mxCell>
        <mxCell id="mezI6ZfzWDAZcWfunjce-64" value="24" style="strokeWidth=1;shadow=0;dashed=0;align=center;html=1;shape=mxgraph.mockup.forms.rrect;rSize=0;strokeColor=#ff0000;fontColor=#ffffff;strokeWidth=2;fillColor=#008cff;" vertex="1" parent="mezI6ZfzWDAZcWfunjce-12">
          <mxGeometry x="50" y="108" width="20" height="20" as="geometry" />
        </mxCell>
        <mxCell id="mezI6ZfzWDAZcWfunjce-65" style="edgeStyle=orthogonalEdgeStyle;rounded=0;orthogonalLoop=1;jettySize=auto;html=1;entryX=-0.012;entryY=0.371;entryDx=0;entryDy=0;entryPerimeter=0;" edge="1" parent="1" source="mezI6ZfzWDAZcWfunjce-11" target="mezI6ZfzWDAZcWfunjce-12">
          <mxGeometry relative="1" as="geometry" />
        </mxCell>
        <mxCell id="mezI6ZfzWDAZcWfunjce-66" value="" style="swimlane;strokeColor=#999999;swimlaneFillColor=#FFFFFF;fillColor=#ffffff;fontColor=#666666;fontStyle=0;childLayout=stackLayout;horizontal=1;startSize=0;horizontalStack=0;resizeParent=1;resizeParentMax=0;resizeLast=0;collapsible=0;marginBottom=0;whiteSpace=wrap;html=1;" vertex="1" parent="1">
          <mxGeometry x="374" y="422" width="150" height="120" as="geometry" />
        </mxCell>
        <mxCell id="mezI6ZfzWDAZcWfunjce-67" value="Autobus" style="text;strokeColor=none;align=left;verticalAlign=middle;spacingLeft=27;spacingRight=10;overflow=hidden;points=[[0,0.5],[1,0.5]];portConstraint=eastwest;rotatable=0;whiteSpace=wrap;html=1;fillColor=none;fontColor=inherit;fontSize=17;" vertex="1" parent="mezI6ZfzWDAZcWfunjce-66">
          <mxGeometry width="150" height="30" as="geometry" />
        </mxCell>
        <mxCell id="mezI6ZfzWDAZcWfunjce-68" value="" style="shape=ellipse;resizable=0;fillColor=#EEEEEE;strokeColor=#999999;gradientColor=#cccccc;html=1;" vertex="1" parent="mezI6ZfzWDAZcWfunjce-67">
          <mxGeometry y="0.5" width="15" height="15" relative="1" as="geometry">
            <mxPoint x="8" y="-7.5" as="offset" />
          </mxGeometry>
        </mxCell>
        <mxCell id="mezI6ZfzWDAZcWfunjce-69" value="Train" style="text;strokeColor=none;align=left;verticalAlign=middle;spacingLeft=27;spacingRight=10;overflow=hidden;points=[[0,0.5],[1,0.5]];portConstraint=eastwest;rotatable=0;whiteSpace=wrap;html=1;rSize=5;fillColor=none;fontColor=inherit;fontSize=17;" vertex="1" parent="mezI6ZfzWDAZcWfunjce-66">
          <mxGeometry y="30" width="150" height="30" as="geometry" />
        </mxCell>
        <mxCell id="mezI6ZfzWDAZcWfunjce-70" value="" style="shape=ellipse;resizable=0;fillColor=#EEEEEE;strokeColor=#999999;gradientColor=#cccccc;html=1;" vertex="1" parent="mezI6ZfzWDAZcWfunjce-69">
          <mxGeometry y="0.5" width="15" height="15" relative="1" as="geometry">
            <mxPoint x="8" y="-7.5" as="offset" />
          </mxGeometry>
        </mxCell>
        <mxCell id="mezI6ZfzWDAZcWfunjce-71" value="Navire" style="text;strokeColor=none;align=left;verticalAlign=middle;spacingLeft=27;spacingRight=10;overflow=hidden;points=[[0,0.5],[1,0.5]];portConstraint=eastwest;rotatable=0;whiteSpace=wrap;html=1;rSize=5;fillColor=none;fontColor=#008CFF;fontSize=17;" vertex="1" parent="mezI6ZfzWDAZcWfunjce-66">
          <mxGeometry y="60" width="150" height="30" as="geometry" />
        </mxCell>
        <mxCell id="mezI6ZfzWDAZcWfunjce-72" value="" style="shape=ellipse;resizable=0;fillColor=#AAAAAA;gradientColor=#666666;strokeColor=#444444;html=1;" vertex="1" parent="mezI6ZfzWDAZcWfunjce-71">
          <mxGeometry y="0.5" width="15" height="15" relative="1" as="geometry">
            <mxPoint x="8" y="-7.5" as="offset" />
          </mxGeometry>
        </mxCell>
        <mxCell id="mezI6ZfzWDAZcWfunjce-73" value="" style="shape=ellipse;resizable=0;fillColor=#444444;strokeColor=none;html=1;" vertex="1" parent="mezI6ZfzWDAZcWfunjce-72">
          <mxGeometry x="0.2" y="0.2" width="9" height="9" relative="1" as="geometry" />
        </mxCell>
        <mxCell id="mezI6ZfzWDAZcWfunjce-74" value="Avion" style="text;strokeColor=none;align=left;verticalAlign=middle;spacingLeft=27;spacingRight=10;overflow=hidden;points=[[0,0.5],[1,0.5]];portConstraint=eastwest;rotatable=0;whiteSpace=wrap;html=1;fillColor=none;fontColor=inherit;fontSize=17;" vertex="1" parent="mezI6ZfzWDAZcWfunjce-66">
          <mxGeometry y="90" width="150" height="30" as="geometry" />
        </mxCell>
        <mxCell id="mezI6ZfzWDAZcWfunjce-75" value="" style="shape=ellipse;resizable=0;fillColor=#EEEEEE;strokeColor=#999999;gradientColor=#cccccc;html=1;" vertex="1" parent="mezI6ZfzWDAZcWfunjce-74">
          <mxGeometry y="0.5" width="15" height="15" relative="1" as="geometry">
            <mxPoint x="8" y="-7.5" as="offset" />
          </mxGeometry>
        </mxCell>
        <mxCell id="mezI6ZfzWDAZcWfunjce-76" value="Moyen de déplacement" style="text;html=1;align=right;verticalAlign=middle;whiteSpace=wrap;rounded=0;fontSize=16;" vertex="1" parent="1">
          <mxGeometry x="134" y="422" width="170" height="30" as="geometry" />
        </mxCell>
        <mxCell id="mezI6ZfzWDAZcWfunjce-77" value="&lt;font style=&quot;font-size: 12px;&quot;&gt;Sélectionner un pays&lt;/font&gt;" style="strokeWidth=1;shadow=0;dashed=0;align=center;html=1;shape=mxgraph.mockup.forms.comboBox;strokeColor=#999999;fillColor=#ddeeff;align=left;fillColor2=#aaddff;mainText=;fontColor=#666666;fontSize=17;spacingLeft=3;" vertex="1" parent="1">
          <mxGeometry x="376" y="301" width="150" height="30" as="geometry" />
        </mxCell>
        <mxCell id="mezI6ZfzWDAZcWfunjce-78" value="Ville d&#39;arrivée" style="text;html=1;align=right;verticalAlign=middle;whiteSpace=wrap;rounded=0;fontSize=16;" vertex="1" parent="1">
          <mxGeometry x="170" y="339" width="134" height="30" as="geometry" />
        </mxCell>
        <mxCell id="mezI6ZfzWDAZcWfunjce-79" value="Pays d&#39;arrivé" style="text;html=1;align=right;verticalAlign=middle;whiteSpace=wrap;rounded=0;fontSize=16;" vertex="1" parent="1">
          <mxGeometry x="172" y="301" width="134" height="30" as="geometry" />
        </mxCell>
        <mxCell id="mezI6ZfzWDAZcWfunjce-80" value="" style="strokeWidth=1;shadow=0;dashed=0;align=center;html=1;shape=mxgraph.mockup.forms.pwField;strokeColor=#999999;mainText=;align=left;fontColor=#666666;fontSize=17;spacingLeft=3;" vertex="1" parent="1">
          <mxGeometry x="376" y="339" width="150" height="30" as="geometry" />
        </mxCell>
        <mxCell id="mezI6ZfzWDAZcWfunjce-81" value="Options" style="text;html=1;align=right;verticalAlign=middle;whiteSpace=wrap;rounded=0;fontSize=16;" vertex="1" parent="1">
          <mxGeometry x="134" y="565" width="170" height="30" as="geometry" />
        </mxCell>
        <mxCell id="mezI6ZfzWDAZcWfunjce-92" value="Supplément pour baggage" style="strokeWidth=1;shadow=0;dashed=0;align=center;html=1;shape=mxgraph.mockup.forms.rrect;rSize=0;fillColor=#eeeeee;strokeColor=#999999;gradientColor=#cccccc;align=left;spacingLeft=4;fontSize=17;fontColor=#666666;labelPosition=right;" vertex="1" parent="1">
          <mxGeometry x="378" y="577" width="15" height="15" as="geometry" />
        </mxCell>
        <mxCell id="mezI6ZfzWDAZcWfunjce-96" value="Service première classe" style="strokeWidth=1;shadow=0;dashed=0;align=center;html=1;shape=mxgraph.mockup.forms.rrect;rSize=0;fillColor=#eeeeee;strokeColor=#999999;gradientColor=#cccccc;align=left;spacingLeft=4;fontSize=17;fontColor=#666666;labelPosition=right;" vertex="1" parent="1">
          <mxGeometry x="378" y="609" width="15" height="15" as="geometry" />
        </mxCell>
        <mxCell id="mezI6ZfzWDAZcWfunjce-97" value="Date flexible" style="strokeWidth=1;shadow=0;dashed=0;align=center;html=1;shape=mxgraph.mockup.forms.rrect;rSize=0;fillColor=#eeeeee;strokeColor=#999999;gradientColor=#cccccc;align=left;spacingLeft=4;fontSize=17;fontColor=#666666;labelPosition=right;" vertex="1" parent="1">
          <mxGeometry x="378" y="641" width="15" height="15" as="geometry" />
        </mxCell>
        <mxCell id="mezI6ZfzWDAZcWfunjce-98" value="Total par personne" style="text;html=1;align=right;verticalAlign=middle;whiteSpace=wrap;rounded=0;fontSize=16;" vertex="1" parent="1">
          <mxGeometry x="331" y="731" width="170" height="30" as="geometry" />
        </mxCell>
        <mxCell id="mezI6ZfzWDAZcWfunjce-99" value="XXX $" style="text;html=1;align=right;verticalAlign=middle;whiteSpace=wrap;rounded=0;fontSize=16;" vertex="1" parent="1">
          <mxGeometry x="397" y="731" width="170" height="30" as="geometry" />
        </mxCell>
        <mxCell id="mezI6ZfzWDAZcWfunjce-100" value="Nombre de personnes" style="text;html=1;align=right;verticalAlign=middle;whiteSpace=wrap;rounded=0;fontSize=16;" vertex="1" parent="1">
          <mxGeometry x="134" y="673" width="170" height="30" as="geometry" />
        </mxCell>
        <mxCell id="mezI6ZfzWDAZcWfunjce-101" value="1" style="strokeWidth=1;shadow=0;dashed=0;align=center;html=1;shape=mxgraph.mockup.forms.spinner;strokeColor=#999999;spinLayout=right;spinStyle=normal;adjStyle=triangle;fillColor=#aaddff;fontSize=17;fontColor=#666666;mainText=;html=1;overflow=fill;" vertex="1" parent="1">
          <mxGeometry x="371" y="673" width="163" height="25" as="geometry" />
        </mxCell>
        <mxCell id="mezI6ZfzWDAZcWfunjce-102" value="Total" style="text;html=1;align=right;verticalAlign=middle;whiteSpace=wrap;rounded=0;fontSize=16;" vertex="1" parent="1">
          <mxGeometry x="331" y="769" width="170" height="30" as="geometry" />
        </mxCell>
        <mxCell id="mezI6ZfzWDAZcWfunjce-103" value="XXX $" style="text;html=1;align=right;verticalAlign=middle;whiteSpace=wrap;rounded=0;fontSize=16;" vertex="1" parent="1">
          <mxGeometry x="397" y="769" width="170" height="30" as="geometry" />
        </mxCell>
        <mxCell id="mezI6ZfzWDAZcWfunjce-105" value="Acheter" style="html=1;shadow=0;dashed=0;shape=mxgraph.bootstrap.rrect;rSize=5;strokeColor=none;strokeWidth=1;fillColor=#33A64C;fontColor=#FFFFFF;whiteSpace=wrap;align=center;verticalAlign=middle;spacingLeft=0;fontStyle=0;fontSize=16;spacing=5;" vertex="1" parent="1">
          <mxGeometry x="360" y="825" width="90" height="40" as="geometry" />
        </mxCell>
        <mxCell id="mezI6ZfzWDAZcWfunjce-106" value="Réinitialiser" style="html=1;shadow=0;dashed=0;shape=mxgraph.bootstrap.rrect;rSize=5;strokeColor=none;strokeWidth=1;fillColor=#DB2843;fontColor=#FFFFFF;whiteSpace=wrap;align=center;verticalAlign=middle;spacingLeft=0;fontStyle=0;fontSize=16;spacing=5;" vertex="1" parent="1">
          <mxGeometry x="464" y="825" width="103" height="40" as="geometry" />
        </mxCell>
        <mxCell id="mezI6ZfzWDAZcWfunjce-107" value="Message d&#39;erreur" style="text;html=1;align=right;verticalAlign=middle;whiteSpace=wrap;rounded=0;fontSize=16;fontColor=#FF0000;" vertex="1" parent="1">
          <mxGeometry x="531" y="261" width="134" height="30" as="geometry" />
        </mxCell>
        <mxCell id="mezI6ZfzWDAZcWfunjce-109" value="Annuler" style="html=1;shadow=0;dashed=0;shape=mxgraph.bootstrap.rrect;rSize=5;strokeColor=none;strokeWidth=1;fillColor=#FFBC26;fontColor=#FFFFFF;whiteSpace=wrap;align=center;verticalAlign=middle;spacingLeft=0;fontStyle=0;fontSize=16;spacing=5;" vertex="1" parent="1">
          <mxGeometry x="574" y="825" width="90" height="40" as="geometry" />
        </mxCell>
        <mxCell id="mezI6ZfzWDAZcWfunjce-110" value="Créer un nouvel itinéraire" style="text;html=1;align=left;verticalAlign=middle;whiteSpace=wrap;rounded=0;fontSize=22;fontStyle=1" vertex="1" parent="1">
          <mxGeometry x="134" y="154" width="282" height="30" as="geometry" />
        </mxCell>
      </root>
    </mxGraphModel>
  </diagram>
  <diagram id="aKYJ98assW8vGWKDAooJ" name="Page-2">
    <mxGraphModel dx="1912" dy="1115" grid="0" gridSize="10" guides="1" tooltips="1" connect="1" arrows="1" fold="1" page="1" pageScale="1" pageWidth="827" pageHeight="1169" math="0" shadow="0">
      <root>
        <mxCell id="0" />
        <mxCell id="1" parent="0" />
        <mxCell id="o3ZY7nAiFbSXyeHQSeMh-1" value="Créer un itinéraire" style="strokeWidth=1;shadow=0;dashed=0;align=center;html=1;shape=mxgraph.mockup.containers.window;align=left;verticalAlign=top;spacingLeft=8;strokeColor2=#008cff;strokeColor3=#c4c4c4;fontColor=#666666;mainText=;fontSize=17;labelBackgroundColor=none;whiteSpace=wrap;" vertex="1" parent="1">
          <mxGeometry x="125" y="90" width="550" height="770" as="geometry" />
        </mxCell>
        <mxCell id="o3ZY7nAiFbSXyeHQSeMh-94" value="" style="rounded=0;whiteSpace=wrap;html=1;strokeWidth=7;fillColor=none;strokeColor=#3333FF;" vertex="1" parent="1">
          <mxGeometry x="120" y="150" width="560" height="730" as="geometry" />
        </mxCell>
        <mxCell id="o3ZY7nAiFbSXyeHQSeMh-95" value="" style="rounded=0;whiteSpace=wrap;html=1;strokeWidth=7;fillColor=none;strokeColor=#b85450;" vertex="1" parent="1">
          <mxGeometry x="137" y="201" width="528" height="601" as="geometry" />
        </mxCell>
        <mxCell id="epBdWIQ7f7VJy7o2fyZY-1" value="" style="rounded=0;whiteSpace=wrap;html=1;strokeWidth=7;fillColor=none;strokeColor=#999999;" vertex="1" parent="1">
          <mxGeometry x="156" y="721" width="482" height="70" as="geometry" />
        </mxCell>
        <mxCell id="o3ZY7nAiFbSXyeHQSeMh-2" value="&lt;font style=&quot;font-size: 12px;&quot;&gt;Sélectionner un pays&lt;/font&gt;" style="strokeWidth=1;shadow=0;dashed=0;align=center;html=1;shape=mxgraph.mockup.forms.comboBox;strokeColor=#999999;fillColor=#ddeeff;align=left;fillColor2=#aaddff;mainText=;fontColor=#666666;fontSize=17;spacingLeft=3;" vertex="1" parent="1">
          <mxGeometry x="376" y="222" width="150" height="30" as="geometry" />
        </mxCell>
        <mxCell id="o3ZY7nAiFbSXyeHQSeMh-3" value="Ville de départ" style="text;html=1;align=right;verticalAlign=middle;whiteSpace=wrap;rounded=0;fontSize=16;" vertex="1" parent="1">
          <mxGeometry x="170" y="261" width="134" height="30" as="geometry" />
        </mxCell>
        <mxCell id="o3ZY7nAiFbSXyeHQSeMh-4" value="Pays de départ" style="text;html=1;align=right;verticalAlign=middle;whiteSpace=wrap;rounded=0;fontSize=16;" vertex="1" parent="1">
          <mxGeometry x="170" y="222" width="134" height="30" as="geometry" />
        </mxCell>
        <mxCell id="o3ZY7nAiFbSXyeHQSeMh-5" value="" style="strokeWidth=1;shadow=0;dashed=0;align=center;html=1;shape=mxgraph.mockup.forms.pwField;strokeColor=#999999;mainText=;align=left;fontColor=#666666;fontSize=17;spacingLeft=3;" vertex="1" parent="1">
          <mxGeometry x="376" y="261" width="150" height="30" as="geometry" />
        </mxCell>
        <mxCell id="o3ZY7nAiFbSXyeHQSeMh-6" value="Date du déplacement" style="text;html=1;align=right;verticalAlign=middle;whiteSpace=wrap;rounded=0;fontSize=16;" vertex="1" parent="1">
          <mxGeometry x="139" y="377" width="165" height="30" as="geometry" />
        </mxCell>
        <mxCell id="o3ZY7nAiFbSXyeHQSeMh-7" value="&lt;font color=&quot;#b3b3b3&quot;&gt;aaaa-mm-jj&lt;/font&gt;" style="strokeWidth=1;shadow=0;dashed=0;align=center;html=1;shape=mxgraph.mockup.forms.pwField;strokeColor=#999999;mainText=;align=left;fontColor=#666666;fontSize=17;spacingLeft=3;" vertex="1" parent="1">
          <mxGeometry x="376" y="377" width="150" height="30" as="geometry" />
        </mxCell>
        <mxCell id="o3ZY7nAiFbSXyeHQSeMh-8" value="" style="strokeWidth=1;shadow=0;dashed=0;align=center;html=1;shape=mxgraph.mockup.forms.rrect;rSize=5;strokeColor=#999999;fillColor=#ffffff;" vertex="1" parent="1">
          <mxGeometry x="598" y="379" width="160" height="175" as="geometry" />
        </mxCell>
        <mxCell id="o3ZY7nAiFbSXyeHQSeMh-9" value="October 2014" style="strokeWidth=1;shadow=0;dashed=0;align=center;html=1;shape=mxgraph.mockup.forms.anchor;fontColor=#999999;" vertex="1" parent="o3ZY7nAiFbSXyeHQSeMh-8">
          <mxGeometry x="30" y="8" width="100" height="20" as="geometry" />
        </mxCell>
        <mxCell id="o3ZY7nAiFbSXyeHQSeMh-10" value="&lt;" style="strokeWidth=1;shadow=0;dashed=0;align=center;html=1;shape=mxgraph.mockup.forms.rrect;rSize=4;strokeColor=#999999;fontColor=#008cff;fontSize=19;fontStyle=1;" vertex="1" parent="o3ZY7nAiFbSXyeHQSeMh-8">
          <mxGeometry x="8" y="8" width="25" height="20" as="geometry" />
        </mxCell>
        <mxCell id="o3ZY7nAiFbSXyeHQSeMh-11" value="&gt;" style="strokeWidth=1;shadow=0;dashed=0;align=center;html=1;shape=mxgraph.mockup.forms.rrect;rSize=4;strokeColor=#999999;fontColor=#008cff;fontSize=19;fontStyle=1;" vertex="1" parent="o3ZY7nAiFbSXyeHQSeMh-8">
          <mxGeometry x="127" y="8" width="25" height="20" as="geometry" />
        </mxCell>
        <mxCell id="o3ZY7nAiFbSXyeHQSeMh-12" value="Mo" style="strokeWidth=1;shadow=0;dashed=0;align=center;html=1;shape=mxgraph.mockup.forms.anchor;fontColor=#999999;" vertex="1" parent="o3ZY7nAiFbSXyeHQSeMh-8">
          <mxGeometry x="10" y="28" width="20" height="20" as="geometry" />
        </mxCell>
        <mxCell id="o3ZY7nAiFbSXyeHQSeMh-13" value="Tu" style="strokeWidth=1;shadow=0;dashed=0;align=center;html=1;shape=mxgraph.mockup.forms.anchor;fontColor=#999999;" vertex="1" parent="o3ZY7nAiFbSXyeHQSeMh-8">
          <mxGeometry x="30" y="28" width="20" height="20" as="geometry" />
        </mxCell>
        <mxCell id="o3ZY7nAiFbSXyeHQSeMh-14" value="We" style="strokeWidth=1;shadow=0;dashed=0;align=center;html=1;shape=mxgraph.mockup.forms.anchor;fontColor=#999999;" vertex="1" parent="o3ZY7nAiFbSXyeHQSeMh-8">
          <mxGeometry x="50" y="28" width="20" height="20" as="geometry" />
        </mxCell>
        <mxCell id="o3ZY7nAiFbSXyeHQSeMh-15" value="Th" style="strokeWidth=1;shadow=0;dashed=0;align=center;html=1;shape=mxgraph.mockup.forms.anchor;fontColor=#999999;" vertex="1" parent="o3ZY7nAiFbSXyeHQSeMh-8">
          <mxGeometry x="70" y="28" width="20" height="20" as="geometry" />
        </mxCell>
        <mxCell id="o3ZY7nAiFbSXyeHQSeMh-16" value="Fr" style="strokeWidth=1;shadow=0;dashed=0;align=center;html=1;shape=mxgraph.mockup.forms.anchor;fontColor=#999999;" vertex="1" parent="o3ZY7nAiFbSXyeHQSeMh-8">
          <mxGeometry x="90" y="28" width="20" height="20" as="geometry" />
        </mxCell>
        <mxCell id="o3ZY7nAiFbSXyeHQSeMh-17" value="Sa" style="strokeWidth=1;shadow=0;dashed=0;align=center;html=1;shape=mxgraph.mockup.forms.anchor;fontColor=#999999;" vertex="1" parent="o3ZY7nAiFbSXyeHQSeMh-8">
          <mxGeometry x="110" y="28" width="20" height="20" as="geometry" />
        </mxCell>
        <mxCell id="o3ZY7nAiFbSXyeHQSeMh-18" value="Su" style="strokeWidth=1;shadow=0;dashed=0;align=center;html=1;shape=mxgraph.mockup.forms.anchor;fontColor=#999999;" vertex="1" parent="o3ZY7nAiFbSXyeHQSeMh-8">
          <mxGeometry x="130" y="28" width="20" height="20" as="geometry" />
        </mxCell>
        <mxCell id="o3ZY7nAiFbSXyeHQSeMh-19" value="1" style="strokeWidth=1;shadow=0;dashed=0;align=center;html=1;shape=mxgraph.mockup.forms.rrect;rSize=0;strokeColor=#999999;fontColor=#999999;" vertex="1" parent="o3ZY7nAiFbSXyeHQSeMh-8">
          <mxGeometry x="10" y="48" width="20" height="20" as="geometry" />
        </mxCell>
        <mxCell id="o3ZY7nAiFbSXyeHQSeMh-20" value="2" style="strokeWidth=1;shadow=0;dashed=0;align=center;html=1;shape=mxgraph.mockup.forms.rrect;rSize=0;strokeColor=#999999;fontColor=#999999;" vertex="1" parent="o3ZY7nAiFbSXyeHQSeMh-8">
          <mxGeometry x="30" y="48" width="20" height="20" as="geometry" />
        </mxCell>
        <mxCell id="o3ZY7nAiFbSXyeHQSeMh-21" value="3" style="strokeWidth=1;shadow=0;dashed=0;align=center;html=1;shape=mxgraph.mockup.forms.rrect;rSize=0;strokeColor=#999999;fontColor=#999999;" vertex="1" parent="o3ZY7nAiFbSXyeHQSeMh-8">
          <mxGeometry x="50" y="48" width="20" height="20" as="geometry" />
        </mxCell>
        <mxCell id="o3ZY7nAiFbSXyeHQSeMh-22" value="4" style="strokeWidth=1;shadow=0;dashed=0;align=center;html=1;shape=mxgraph.mockup.forms.rrect;rSize=0;strokeColor=#999999;fontColor=#999999;" vertex="1" parent="o3ZY7nAiFbSXyeHQSeMh-8">
          <mxGeometry x="70" y="48" width="20" height="20" as="geometry" />
        </mxCell>
        <mxCell id="o3ZY7nAiFbSXyeHQSeMh-23" value="5" style="strokeWidth=1;shadow=0;dashed=0;align=center;html=1;shape=mxgraph.mockup.forms.rrect;rSize=0;strokeColor=#999999;fontColor=#999999;" vertex="1" parent="o3ZY7nAiFbSXyeHQSeMh-8">
          <mxGeometry x="90" y="48" width="20" height="20" as="geometry" />
        </mxCell>
        <mxCell id="o3ZY7nAiFbSXyeHQSeMh-24" value="6" style="strokeWidth=1;shadow=0;dashed=0;align=center;html=1;shape=mxgraph.mockup.forms.rrect;rSize=0;strokeColor=#999999;fontColor=#999999;" vertex="1" parent="o3ZY7nAiFbSXyeHQSeMh-8">
          <mxGeometry x="110" y="48" width="20" height="20" as="geometry" />
        </mxCell>
        <mxCell id="o3ZY7nAiFbSXyeHQSeMh-25" value="7" style="strokeWidth=1;shadow=0;dashed=0;align=center;html=1;shape=mxgraph.mockup.forms.rrect;rSize=0;strokeColor=#999999;fontColor=#999999;" vertex="1" parent="o3ZY7nAiFbSXyeHQSeMh-8">
          <mxGeometry x="130" y="48" width="20" height="20" as="geometry" />
        </mxCell>
        <mxCell id="o3ZY7nAiFbSXyeHQSeMh-26" value="8" style="strokeWidth=1;shadow=0;dashed=0;align=center;html=1;shape=mxgraph.mockup.forms.rrect;rSize=0;strokeColor=#999999;fontColor=#999999;" vertex="1" parent="o3ZY7nAiFbSXyeHQSeMh-8">
          <mxGeometry x="10" y="68" width="20" height="20" as="geometry" />
        </mxCell>
        <mxCell id="o3ZY7nAiFbSXyeHQSeMh-27" value="9" style="strokeWidth=1;shadow=0;dashed=0;align=center;html=1;shape=mxgraph.mockup.forms.rrect;rSize=0;strokeColor=#999999;fontColor=#999999;" vertex="1" parent="o3ZY7nAiFbSXyeHQSeMh-8">
          <mxGeometry x="30" y="68" width="20" height="20" as="geometry" />
        </mxCell>
        <mxCell id="o3ZY7nAiFbSXyeHQSeMh-28" value="10" style="strokeWidth=1;shadow=0;dashed=0;align=center;html=1;shape=mxgraph.mockup.forms.rrect;rSize=0;strokeColor=#999999;fontColor=#999999;" vertex="1" parent="o3ZY7nAiFbSXyeHQSeMh-8">
          <mxGeometry x="50" y="68" width="20" height="20" as="geometry" />
        </mxCell>
        <mxCell id="o3ZY7nAiFbSXyeHQSeMh-29" value="11" style="strokeWidth=1;shadow=0;dashed=0;align=center;html=1;shape=mxgraph.mockup.forms.rrect;rSize=0;strokeColor=#999999;fontColor=#999999;" vertex="1" parent="o3ZY7nAiFbSXyeHQSeMh-8">
          <mxGeometry x="70" y="68" width="20" height="20" as="geometry" />
        </mxCell>
        <mxCell id="o3ZY7nAiFbSXyeHQSeMh-30" value="12" style="strokeWidth=1;shadow=0;dashed=0;align=center;html=1;shape=mxgraph.mockup.forms.rrect;rSize=0;strokeColor=#999999;fontColor=#999999;" vertex="1" parent="o3ZY7nAiFbSXyeHQSeMh-8">
          <mxGeometry x="90" y="68" width="20" height="20" as="geometry" />
        </mxCell>
        <mxCell id="o3ZY7nAiFbSXyeHQSeMh-31" value="13" style="strokeWidth=1;shadow=0;dashed=0;align=center;html=1;shape=mxgraph.mockup.forms.rrect;rSize=0;strokeColor=#999999;fontColor=#999999;" vertex="1" parent="o3ZY7nAiFbSXyeHQSeMh-8">
          <mxGeometry x="110" y="68" width="20" height="20" as="geometry" />
        </mxCell>
        <mxCell id="o3ZY7nAiFbSXyeHQSeMh-32" value="14" style="strokeWidth=1;shadow=0;dashed=0;align=center;html=1;shape=mxgraph.mockup.forms.rrect;rSize=0;strokeColor=#999999;fontColor=#999999;" vertex="1" parent="o3ZY7nAiFbSXyeHQSeMh-8">
          <mxGeometry x="130" y="68" width="20" height="20" as="geometry" />
        </mxCell>
        <mxCell id="o3ZY7nAiFbSXyeHQSeMh-33" value="15" style="strokeWidth=1;shadow=0;dashed=0;align=center;html=1;shape=mxgraph.mockup.forms.rrect;rSize=0;strokeColor=#999999;fontColor=#999999;" vertex="1" parent="o3ZY7nAiFbSXyeHQSeMh-8">
          <mxGeometry x="10" y="88" width="20" height="20" as="geometry" />
        </mxCell>
        <mxCell id="o3ZY7nAiFbSXyeHQSeMh-34" value="16" style="strokeWidth=1;shadow=0;dashed=0;align=center;html=1;shape=mxgraph.mockup.forms.rrect;rSize=0;strokeColor=#999999;fontColor=#999999;" vertex="1" parent="o3ZY7nAiFbSXyeHQSeMh-8">
          <mxGeometry x="30" y="88" width="20" height="20" as="geometry" />
        </mxCell>
        <mxCell id="o3ZY7nAiFbSXyeHQSeMh-35" value="17" style="strokeWidth=1;shadow=0;dashed=0;align=center;html=1;shape=mxgraph.mockup.forms.rrect;rSize=0;strokeColor=#999999;fontColor=#999999;" vertex="1" parent="o3ZY7nAiFbSXyeHQSeMh-8">
          <mxGeometry x="50" y="88" width="20" height="20" as="geometry" />
        </mxCell>
        <mxCell id="o3ZY7nAiFbSXyeHQSeMh-36" value="18" style="strokeWidth=1;shadow=0;dashed=0;align=center;html=1;shape=mxgraph.mockup.forms.rrect;rSize=0;strokeColor=#999999;fontColor=#999999;" vertex="1" parent="o3ZY7nAiFbSXyeHQSeMh-8">
          <mxGeometry x="70" y="88" width="20" height="20" as="geometry" />
        </mxCell>
        <mxCell id="o3ZY7nAiFbSXyeHQSeMh-37" value="19" style="strokeWidth=1;shadow=0;dashed=0;align=center;html=1;shape=mxgraph.mockup.forms.rrect;rSize=0;strokeColor=#999999;fontColor=#999999;" vertex="1" parent="o3ZY7nAiFbSXyeHQSeMh-8">
          <mxGeometry x="90" y="88" width="20" height="20" as="geometry" />
        </mxCell>
        <mxCell id="o3ZY7nAiFbSXyeHQSeMh-38" value="20" style="strokeWidth=1;shadow=0;dashed=0;align=center;html=1;shape=mxgraph.mockup.forms.rrect;rSize=0;strokeColor=#999999;fontColor=#999999;" vertex="1" parent="o3ZY7nAiFbSXyeHQSeMh-8">
          <mxGeometry x="110" y="88" width="20" height="20" as="geometry" />
        </mxCell>
        <mxCell id="o3ZY7nAiFbSXyeHQSeMh-39" value="21" style="strokeWidth=1;shadow=0;dashed=0;align=center;html=1;shape=mxgraph.mockup.forms.rrect;rSize=0;strokeColor=#999999;fontColor=#999999;" vertex="1" parent="o3ZY7nAiFbSXyeHQSeMh-8">
          <mxGeometry x="130" y="88" width="20" height="20" as="geometry" />
        </mxCell>
        <mxCell id="o3ZY7nAiFbSXyeHQSeMh-40" value="22" style="strokeWidth=1;shadow=0;dashed=0;align=center;html=1;shape=mxgraph.mockup.forms.rrect;rSize=0;strokeColor=#999999;fontColor=#999999;" vertex="1" parent="o3ZY7nAiFbSXyeHQSeMh-8">
          <mxGeometry x="10" y="108" width="20" height="20" as="geometry" />
        </mxCell>
        <mxCell id="o3ZY7nAiFbSXyeHQSeMh-41" value="23" style="strokeWidth=1;shadow=0;dashed=0;align=center;html=1;shape=mxgraph.mockup.forms.rrect;rSize=0;strokeColor=#999999;fontColor=#999999;" vertex="1" parent="o3ZY7nAiFbSXyeHQSeMh-8">
          <mxGeometry x="30" y="108" width="20" height="20" as="geometry" />
        </mxCell>
        <mxCell id="o3ZY7nAiFbSXyeHQSeMh-42" value="25" style="strokeWidth=1;shadow=0;dashed=0;align=center;html=1;shape=mxgraph.mockup.forms.rrect;rSize=0;strokeColor=#999999;fontColor=#999999;" vertex="1" parent="o3ZY7nAiFbSXyeHQSeMh-8">
          <mxGeometry x="70" y="108" width="20" height="20" as="geometry" />
        </mxCell>
        <mxCell id="o3ZY7nAiFbSXyeHQSeMh-43" value="26" style="strokeWidth=1;shadow=0;dashed=0;align=center;html=1;shape=mxgraph.mockup.forms.rrect;rSize=0;strokeColor=#999999;fontColor=#999999;" vertex="1" parent="o3ZY7nAiFbSXyeHQSeMh-8">
          <mxGeometry x="90" y="108" width="20" height="20" as="geometry" />
        </mxCell>
        <mxCell id="o3ZY7nAiFbSXyeHQSeMh-44" value="27" style="strokeWidth=1;shadow=0;dashed=0;align=center;html=1;shape=mxgraph.mockup.forms.rrect;rSize=0;strokeColor=#999999;fontColor=#999999;" vertex="1" parent="o3ZY7nAiFbSXyeHQSeMh-8">
          <mxGeometry x="110" y="108" width="20" height="20" as="geometry" />
        </mxCell>
        <mxCell id="o3ZY7nAiFbSXyeHQSeMh-45" value="28" style="strokeWidth=1;shadow=0;dashed=0;align=center;html=1;shape=mxgraph.mockup.forms.rrect;rSize=0;strokeColor=#999999;fontColor=#999999;" vertex="1" parent="o3ZY7nAiFbSXyeHQSeMh-8">
          <mxGeometry x="130" y="108" width="20" height="20" as="geometry" />
        </mxCell>
        <mxCell id="o3ZY7nAiFbSXyeHQSeMh-46" value="29" style="strokeWidth=1;shadow=0;dashed=0;align=center;html=1;shape=mxgraph.mockup.forms.rrect;rSize=0;strokeColor=#999999;fontColor=#999999;" vertex="1" parent="o3ZY7nAiFbSXyeHQSeMh-8">
          <mxGeometry x="10" y="128" width="20" height="20" as="geometry" />
        </mxCell>
        <mxCell id="o3ZY7nAiFbSXyeHQSeMh-47" value="30" style="strokeWidth=1;shadow=0;dashed=0;align=center;html=1;shape=mxgraph.mockup.forms.rrect;rSize=0;strokeColor=#999999;fontColor=#999999;" vertex="1" parent="o3ZY7nAiFbSXyeHQSeMh-8">
          <mxGeometry x="30" y="128" width="20" height="20" as="geometry" />
        </mxCell>
        <mxCell id="o3ZY7nAiFbSXyeHQSeMh-48" value="31" style="strokeWidth=1;shadow=0;dashed=0;align=center;html=1;shape=mxgraph.mockup.forms.rrect;rSize=0;strokeColor=#999999;fontColor=#999999;" vertex="1" parent="o3ZY7nAiFbSXyeHQSeMh-8">
          <mxGeometry x="50" y="128" width="20" height="20" as="geometry" />
        </mxCell>
        <mxCell id="o3ZY7nAiFbSXyeHQSeMh-49" value="1" style="strokeWidth=1;shadow=0;dashed=0;align=center;html=1;shape=mxgraph.mockup.forms.rrect;rSize=0;strokeColor=#999999;fontColor=#999999;fillColor=#ddeeff;" vertex="1" parent="o3ZY7nAiFbSXyeHQSeMh-8">
          <mxGeometry x="70" y="128" width="20" height="20" as="geometry" />
        </mxCell>
        <mxCell id="o3ZY7nAiFbSXyeHQSeMh-50" value="2" style="strokeWidth=1;shadow=0;dashed=0;align=center;html=1;shape=mxgraph.mockup.forms.rrect;rSize=0;strokeColor=#999999;fontColor=#999999;fillColor=#ddeeff;" vertex="1" parent="o3ZY7nAiFbSXyeHQSeMh-8">
          <mxGeometry x="90" y="128" width="20" height="20" as="geometry" />
        </mxCell>
        <mxCell id="o3ZY7nAiFbSXyeHQSeMh-51" value="3" style="strokeWidth=1;shadow=0;dashed=0;align=center;html=1;shape=mxgraph.mockup.forms.rrect;rSize=0;strokeColor=#999999;fontColor=#999999;fillColor=#ddeeff;" vertex="1" parent="o3ZY7nAiFbSXyeHQSeMh-8">
          <mxGeometry x="110" y="128" width="20" height="20" as="geometry" />
        </mxCell>
        <mxCell id="o3ZY7nAiFbSXyeHQSeMh-52" value="4" style="strokeWidth=1;shadow=0;dashed=0;align=center;html=1;shape=mxgraph.mockup.forms.rrect;rSize=0;strokeColor=#999999;fontColor=#999999;fillColor=#ddeeff;" vertex="1" parent="o3ZY7nAiFbSXyeHQSeMh-8">
          <mxGeometry x="130" y="128" width="20" height="20" as="geometry" />
        </mxCell>
        <mxCell id="o3ZY7nAiFbSXyeHQSeMh-53" value="5" style="strokeWidth=1;shadow=0;dashed=0;align=center;html=1;shape=mxgraph.mockup.forms.rrect;rSize=0;strokeColor=#999999;fontColor=#999999;fillColor=#ddeeff;" vertex="1" parent="o3ZY7nAiFbSXyeHQSeMh-8">
          <mxGeometry x="10" y="148" width="20" height="20" as="geometry" />
        </mxCell>
        <mxCell id="o3ZY7nAiFbSXyeHQSeMh-54" value="6" style="strokeWidth=1;shadow=0;dashed=0;align=center;html=1;shape=mxgraph.mockup.forms.rrect;rSize=0;strokeColor=#999999;fontColor=#999999;fillColor=#ddeeff;" vertex="1" parent="o3ZY7nAiFbSXyeHQSeMh-8">
          <mxGeometry x="30" y="148" width="20" height="20" as="geometry" />
        </mxCell>
        <mxCell id="o3ZY7nAiFbSXyeHQSeMh-55" value="7" style="strokeWidth=1;shadow=0;dashed=0;align=center;html=1;shape=mxgraph.mockup.forms.rrect;rSize=0;strokeColor=#999999;fontColor=#999999;fillColor=#ddeeff;" vertex="1" parent="o3ZY7nAiFbSXyeHQSeMh-8">
          <mxGeometry x="50" y="148" width="20" height="20" as="geometry" />
        </mxCell>
        <mxCell id="o3ZY7nAiFbSXyeHQSeMh-56" value="8" style="strokeWidth=1;shadow=0;dashed=0;align=center;html=1;shape=mxgraph.mockup.forms.rrect;rSize=0;strokeColor=#999999;fontColor=#999999;fillColor=#ddeeff;" vertex="1" parent="o3ZY7nAiFbSXyeHQSeMh-8">
          <mxGeometry x="70" y="148" width="20" height="20" as="geometry" />
        </mxCell>
        <mxCell id="o3ZY7nAiFbSXyeHQSeMh-57" value="9" style="strokeWidth=1;shadow=0;dashed=0;align=center;html=1;shape=mxgraph.mockup.forms.rrect;rSize=0;strokeColor=#999999;fontColor=#999999;fillColor=#ddeeff;" vertex="1" parent="o3ZY7nAiFbSXyeHQSeMh-8">
          <mxGeometry x="90" y="148" width="20" height="20" as="geometry" />
        </mxCell>
        <mxCell id="o3ZY7nAiFbSXyeHQSeMh-58" value="10" style="strokeWidth=1;shadow=0;dashed=0;align=center;html=1;shape=mxgraph.mockup.forms.rrect;rSize=0;strokeColor=#999999;fontColor=#999999;fillColor=#ddeeff;" vertex="1" parent="o3ZY7nAiFbSXyeHQSeMh-8">
          <mxGeometry x="110" y="148" width="20" height="20" as="geometry" />
        </mxCell>
        <mxCell id="o3ZY7nAiFbSXyeHQSeMh-59" value="11" style="strokeWidth=1;shadow=0;dashed=0;align=center;html=1;shape=mxgraph.mockup.forms.rrect;rSize=0;strokeColor=#999999;fontColor=#999999;fillColor=#ddeeff;" vertex="1" parent="o3ZY7nAiFbSXyeHQSeMh-8">
          <mxGeometry x="130" y="148" width="20" height="20" as="geometry" />
        </mxCell>
        <mxCell id="o3ZY7nAiFbSXyeHQSeMh-60" value="24" style="strokeWidth=1;shadow=0;dashed=0;align=center;html=1;shape=mxgraph.mockup.forms.rrect;rSize=0;strokeColor=#ff0000;fontColor=#ffffff;strokeWidth=2;fillColor=#008cff;" vertex="1" parent="o3ZY7nAiFbSXyeHQSeMh-8">
          <mxGeometry x="50" y="108" width="20" height="20" as="geometry" />
        </mxCell>
        <mxCell id="o3ZY7nAiFbSXyeHQSeMh-61" style="edgeStyle=orthogonalEdgeStyle;rounded=0;orthogonalLoop=1;jettySize=auto;html=1;entryX=-0.012;entryY=0.371;entryDx=0;entryDy=0;entryPerimeter=0;" edge="1" parent="1" source="o3ZY7nAiFbSXyeHQSeMh-7" target="o3ZY7nAiFbSXyeHQSeMh-8">
          <mxGeometry relative="1" as="geometry" />
        </mxCell>
        <mxCell id="o3ZY7nAiFbSXyeHQSeMh-62" value="" style="swimlane;strokeColor=#999999;swimlaneFillColor=#FFFFFF;fillColor=#ffffff;fontColor=#666666;fontStyle=0;childLayout=stackLayout;horizontal=1;startSize=0;horizontalStack=0;resizeParent=1;resizeParentMax=0;resizeLast=0;collapsible=0;marginBottom=0;whiteSpace=wrap;html=1;" vertex="1" parent="1">
          <mxGeometry x="374" y="422" width="150" height="120" as="geometry" />
        </mxCell>
        <mxCell id="o3ZY7nAiFbSXyeHQSeMh-63" value="Autobus" style="text;strokeColor=none;align=left;verticalAlign=middle;spacingLeft=27;spacingRight=10;overflow=hidden;points=[[0,0.5],[1,0.5]];portConstraint=eastwest;rotatable=0;whiteSpace=wrap;html=1;fillColor=none;fontColor=inherit;fontSize=17;" vertex="1" parent="o3ZY7nAiFbSXyeHQSeMh-62">
          <mxGeometry width="150" height="30" as="geometry" />
        </mxCell>
        <mxCell id="o3ZY7nAiFbSXyeHQSeMh-64" value="" style="shape=ellipse;resizable=0;fillColor=#EEEEEE;strokeColor=#999999;gradientColor=#cccccc;html=1;" vertex="1" parent="o3ZY7nAiFbSXyeHQSeMh-63">
          <mxGeometry y="0.5" width="15" height="15" relative="1" as="geometry">
            <mxPoint x="8" y="-7.5" as="offset" />
          </mxGeometry>
        </mxCell>
        <mxCell id="o3ZY7nAiFbSXyeHQSeMh-65" value="Train" style="text;strokeColor=none;align=left;verticalAlign=middle;spacingLeft=27;spacingRight=10;overflow=hidden;points=[[0,0.5],[1,0.5]];portConstraint=eastwest;rotatable=0;whiteSpace=wrap;html=1;rSize=5;fillColor=none;fontColor=inherit;fontSize=17;" vertex="1" parent="o3ZY7nAiFbSXyeHQSeMh-62">
          <mxGeometry y="30" width="150" height="30" as="geometry" />
        </mxCell>
        <mxCell id="o3ZY7nAiFbSXyeHQSeMh-66" value="" style="shape=ellipse;resizable=0;fillColor=#EEEEEE;strokeColor=#999999;gradientColor=#cccccc;html=1;" vertex="1" parent="o3ZY7nAiFbSXyeHQSeMh-65">
          <mxGeometry y="0.5" width="15" height="15" relative="1" as="geometry">
            <mxPoint x="8" y="-7.5" as="offset" />
          </mxGeometry>
        </mxCell>
        <mxCell id="o3ZY7nAiFbSXyeHQSeMh-67" value="Navire" style="text;strokeColor=none;align=left;verticalAlign=middle;spacingLeft=27;spacingRight=10;overflow=hidden;points=[[0,0.5],[1,0.5]];portConstraint=eastwest;rotatable=0;whiteSpace=wrap;html=1;rSize=5;fillColor=none;fontColor=#008CFF;fontSize=17;" vertex="1" parent="o3ZY7nAiFbSXyeHQSeMh-62">
          <mxGeometry y="60" width="150" height="30" as="geometry" />
        </mxCell>
        <mxCell id="o3ZY7nAiFbSXyeHQSeMh-68" value="" style="shape=ellipse;resizable=0;fillColor=#AAAAAA;gradientColor=#666666;strokeColor=#444444;html=1;" vertex="1" parent="o3ZY7nAiFbSXyeHQSeMh-67">
          <mxGeometry y="0.5" width="15" height="15" relative="1" as="geometry">
            <mxPoint x="8" y="-7.5" as="offset" />
          </mxGeometry>
        </mxCell>
        <mxCell id="o3ZY7nAiFbSXyeHQSeMh-69" value="" style="shape=ellipse;resizable=0;fillColor=#444444;strokeColor=none;html=1;" vertex="1" parent="o3ZY7nAiFbSXyeHQSeMh-68">
          <mxGeometry x="0.2" y="0.2" width="9" height="9" relative="1" as="geometry" />
        </mxCell>
        <mxCell id="o3ZY7nAiFbSXyeHQSeMh-70" value="Avion" style="text;strokeColor=none;align=left;verticalAlign=middle;spacingLeft=27;spacingRight=10;overflow=hidden;points=[[0,0.5],[1,0.5]];portConstraint=eastwest;rotatable=0;whiteSpace=wrap;html=1;fillColor=none;fontColor=inherit;fontSize=17;" vertex="1" parent="o3ZY7nAiFbSXyeHQSeMh-62">
          <mxGeometry y="90" width="150" height="30" as="geometry" />
        </mxCell>
        <mxCell id="o3ZY7nAiFbSXyeHQSeMh-71" value="" style="shape=ellipse;resizable=0;fillColor=#EEEEEE;strokeColor=#999999;gradientColor=#cccccc;html=1;" vertex="1" parent="o3ZY7nAiFbSXyeHQSeMh-70">
          <mxGeometry y="0.5" width="15" height="15" relative="1" as="geometry">
            <mxPoint x="8" y="-7.5" as="offset" />
          </mxGeometry>
        </mxCell>
        <mxCell id="o3ZY7nAiFbSXyeHQSeMh-72" value="Moyen de déplacement" style="text;html=1;align=right;verticalAlign=middle;whiteSpace=wrap;rounded=0;fontSize=16;" vertex="1" parent="1">
          <mxGeometry x="134" y="422" width="170" height="30" as="geometry" />
        </mxCell>
        <mxCell id="o3ZY7nAiFbSXyeHQSeMh-73" value="&lt;font style=&quot;font-size: 12px;&quot;&gt;Sélectionner un pays&lt;/font&gt;" style="strokeWidth=1;shadow=0;dashed=0;align=center;html=1;shape=mxgraph.mockup.forms.comboBox;strokeColor=#999999;fillColor=#ddeeff;align=left;fillColor2=#aaddff;mainText=;fontColor=#666666;fontSize=17;spacingLeft=3;" vertex="1" parent="1">
          <mxGeometry x="376" y="301" width="150" height="30" as="geometry" />
        </mxCell>
        <mxCell id="o3ZY7nAiFbSXyeHQSeMh-74" value="Ville d&#39;arrivée" style="text;html=1;align=right;verticalAlign=middle;whiteSpace=wrap;rounded=0;fontSize=16;" vertex="1" parent="1">
          <mxGeometry x="170" y="339" width="134" height="30" as="geometry" />
        </mxCell>
        <mxCell id="o3ZY7nAiFbSXyeHQSeMh-75" value="Pays d&#39;arrivé" style="text;html=1;align=right;verticalAlign=middle;whiteSpace=wrap;rounded=0;fontSize=16;" vertex="1" parent="1">
          <mxGeometry x="172" y="301" width="134" height="30" as="geometry" />
        </mxCell>
        <mxCell id="o3ZY7nAiFbSXyeHQSeMh-76" value="" style="strokeWidth=1;shadow=0;dashed=0;align=center;html=1;shape=mxgraph.mockup.forms.pwField;strokeColor=#999999;mainText=;align=left;fontColor=#666666;fontSize=17;spacingLeft=3;" vertex="1" parent="1">
          <mxGeometry x="376" y="339" width="150" height="30" as="geometry" />
        </mxCell>
        <mxCell id="o3ZY7nAiFbSXyeHQSeMh-77" value="Options" style="text;html=1;align=right;verticalAlign=middle;whiteSpace=wrap;rounded=0;fontSize=16;" vertex="1" parent="1">
          <mxGeometry x="134" y="565" width="170" height="30" as="geometry" />
        </mxCell>
        <mxCell id="o3ZY7nAiFbSXyeHQSeMh-78" value="Supplément pour baggage" style="strokeWidth=1;shadow=0;dashed=0;align=center;html=1;shape=mxgraph.mockup.forms.rrect;rSize=0;fillColor=#eeeeee;strokeColor=#999999;gradientColor=#cccccc;align=left;spacingLeft=4;fontSize=17;fontColor=#666666;labelPosition=right;" vertex="1" parent="1">
          <mxGeometry x="378" y="577" width="15" height="15" as="geometry" />
        </mxCell>
        <mxCell id="o3ZY7nAiFbSXyeHQSeMh-79" value="Service première classe" style="strokeWidth=1;shadow=0;dashed=0;align=center;html=1;shape=mxgraph.mockup.forms.rrect;rSize=0;fillColor=#eeeeee;strokeColor=#999999;gradientColor=#cccccc;align=left;spacingLeft=4;fontSize=17;fontColor=#666666;labelPosition=right;" vertex="1" parent="1">
          <mxGeometry x="378" y="609" width="15" height="15" as="geometry" />
        </mxCell>
        <mxCell id="o3ZY7nAiFbSXyeHQSeMh-80" value="Date flexible" style="strokeWidth=1;shadow=0;dashed=0;align=center;html=1;shape=mxgraph.mockup.forms.rrect;rSize=0;fillColor=#eeeeee;strokeColor=#999999;gradientColor=#cccccc;align=left;spacingLeft=4;fontSize=17;fontColor=#666666;labelPosition=right;" vertex="1" parent="1">
          <mxGeometry x="378" y="641" width="15" height="15" as="geometry" />
        </mxCell>
        <mxCell id="o3ZY7nAiFbSXyeHQSeMh-81" value="Total par personne" style="text;html=1;align=right;verticalAlign=middle;whiteSpace=wrap;rounded=0;fontSize=16;" vertex="1" parent="1">
          <mxGeometry x="334" y="723" width="170" height="30" as="geometry" />
        </mxCell>
        <mxCell id="o3ZY7nAiFbSXyeHQSeMh-82" value="XXX $" style="text;html=1;align=right;verticalAlign=middle;whiteSpace=wrap;rounded=0;fontSize=16;" vertex="1" parent="1">
          <mxGeometry x="398" y="721" width="170" height="30" as="geometry" />
        </mxCell>
        <mxCell id="o3ZY7nAiFbSXyeHQSeMh-83" value="Nombre de personnes" style="text;html=1;align=right;verticalAlign=middle;whiteSpace=wrap;rounded=0;fontSize=16;" vertex="1" parent="1">
          <mxGeometry x="134" y="673" width="170" height="30" as="geometry" />
        </mxCell>
        <mxCell id="o3ZY7nAiFbSXyeHQSeMh-84" value="1" style="strokeWidth=1;shadow=0;dashed=0;align=center;html=1;shape=mxgraph.mockup.forms.spinner;strokeColor=#999999;spinLayout=right;spinStyle=normal;adjStyle=triangle;fillColor=#aaddff;fontSize=17;fontColor=#666666;mainText=;html=1;overflow=fill;" vertex="1" parent="1">
          <mxGeometry x="371" y="673" width="163" height="25" as="geometry" />
        </mxCell>
        <mxCell id="o3ZY7nAiFbSXyeHQSeMh-85" value="Total" style="text;html=1;align=right;verticalAlign=middle;whiteSpace=wrap;rounded=0;fontSize=16;" vertex="1" parent="1">
          <mxGeometry x="332" y="750" width="170" height="30" as="geometry" />
        </mxCell>
        <mxCell id="o3ZY7nAiFbSXyeHQSeMh-86" value="XXX $" style="text;html=1;align=right;verticalAlign=middle;whiteSpace=wrap;rounded=0;fontSize=16;" vertex="1" parent="1">
          <mxGeometry x="398" y="750" width="170" height="30" as="geometry" />
        </mxCell>
        <mxCell id="o3ZY7nAiFbSXyeHQSeMh-87" value="Acheter" style="html=1;shadow=0;dashed=0;shape=mxgraph.bootstrap.rrect;rSize=5;strokeColor=none;strokeWidth=1;fillColor=#33A64C;fontColor=#FFFFFF;whiteSpace=wrap;align=center;verticalAlign=middle;spacingLeft=0;fontStyle=0;fontSize=16;spacing=5;" vertex="1" parent="1">
          <mxGeometry x="360" y="825" width="90" height="40" as="geometry" />
        </mxCell>
        <mxCell id="o3ZY7nAiFbSXyeHQSeMh-88" value="Réinitialiser" style="html=1;shadow=0;dashed=0;shape=mxgraph.bootstrap.rrect;rSize=5;strokeColor=none;strokeWidth=1;fillColor=#DB2843;fontColor=#FFFFFF;whiteSpace=wrap;align=center;verticalAlign=middle;spacingLeft=0;fontStyle=0;fontSize=16;spacing=5;" vertex="1" parent="1">
          <mxGeometry x="464" y="825" width="103" height="40" as="geometry" />
        </mxCell>
        <mxCell id="o3ZY7nAiFbSXyeHQSeMh-89" value="Message d&#39;erreur" style="text;html=1;align=right;verticalAlign=middle;whiteSpace=wrap;rounded=0;fontSize=16;fontColor=#FF0000;" vertex="1" parent="1">
          <mxGeometry x="531" y="261" width="134" height="30" as="geometry" />
        </mxCell>
        <mxCell id="o3ZY7nAiFbSXyeHQSeMh-90" value="Annuler" style="html=1;shadow=0;dashed=0;shape=mxgraph.bootstrap.rrect;rSize=5;strokeColor=none;strokeWidth=1;fillColor=#FFBC26;fontColor=#FFFFFF;whiteSpace=wrap;align=center;verticalAlign=middle;spacingLeft=0;fontStyle=0;fontSize=16;spacing=5;" vertex="1" parent="1">
          <mxGeometry x="574" y="825" width="90" height="40" as="geometry" />
        </mxCell>
        <mxCell id="o3ZY7nAiFbSXyeHQSeMh-91" value="Créer un nouvel itinéraire" style="text;html=1;align=left;verticalAlign=middle;whiteSpace=wrap;rounded=0;fontSize=22;fontStyle=1" vertex="1" parent="1">
          <mxGeometry x="134" y="154" width="282" height="30" as="geometry" />
        </mxCell>
        <mxCell id="o3ZY7nAiFbSXyeHQSeMh-96" value="" style="rounded=0;whiteSpace=wrap;html=1;strokeWidth=7;fillColor=none;strokeColor=#009900;" vertex="1" parent="1">
          <mxGeometry x="137" y="813" width="528" height="56" as="geometry" />
        </mxCell>
      </root>
    </mxGraphModel>
  </diagram>
</mxfile>
